<svg xmlns="http://www.w3.org/2000/svg" xmlns:xlink="http://www.w3.org/1999/xlink" width="400" zoomAndPan="magnify" viewBox="0 0 300 67.499998" height="90" preserveAspectRatio="xMidYMid meet" version="1.0"><defs><g/></defs><g fill="#004aad" fill-opacity="1"><g transform="translate(69.7979, 51.703628)"><g><path d="M 31.734375 0 L 15.53125 -18.71875 L 15.53125 0 L 4.15625 0 L 4.15625 -38.578125 L 14.96875 -38.578125 L 31.171875 -19.5625 L 31.171875 -38.578125 L 42.546875 -38.578125 L 42.546875 0 Z M 31.734375 0 "/></g></g></g><g fill="#004aad" fill-opacity="1"><g transform="translate(113.295466, 51.703628)"><g><path d="M 18 -30.28125 C 22.519531 -30.28125 26.195312 -29.519531 29.03125 -28 C 31.875 -26.488281 33.296875 -24.03125 33.296875 -20.625 L 33.296875 -9.078125 C 33.296875 -8.441406 33.445312 -7.914062 33.75 -7.5 C 34.050781 -7.09375 34.5 -6.890625 35.09375 -6.890625 L 37.109375 -6.890625 L 37.109375 -0.453125 C 36.992188 -0.378906 36.703125 -0.253906 36.234375 -0.078125 C 35.773438 0.0859375 35.113281 0.253906 34.25 0.421875 C 33.394531 0.585938 32.40625 0.671875 31.28125 0.671875 C 29.113281 0.671875 27.328125 0.34375 25.921875 -0.3125 C 24.523438 -0.96875 23.566406 -1.875 23.046875 -3.03125 C 21.617188 -1.90625 20.023438 -1.003906 18.265625 -0.328125 C 16.515625 0.335938 14.460938 0.671875 12.109375 0.671875 C 5.160156 0.671875 1.6875 -2.09375 1.6875 -7.625 C 1.6875 -10.5 2.457031 -12.691406 4 -14.203125 C 5.550781 -15.722656 7.785156 -16.765625 10.703125 -17.328125 C 13.617188 -17.890625 17.429688 -18.171875 22.140625 -18.171875 L 22.140625 -19.625 C 22.140625 -20.78125 21.738281 -21.65625 20.9375 -22.25 C 20.132812 -22.851562 19.097656 -23.15625 17.828125 -23.15625 C 16.671875 -23.15625 15.671875 -22.945312 14.828125 -22.53125 C 13.984375 -22.125 13.5625 -21.472656 13.5625 -20.578125 L 13.5625 -20.34375 L 2.578125 -20.34375 C 2.535156 -20.53125 2.515625 -20.796875 2.515625 -21.140625 C 2.515625 -23.941406 3.851562 -26.164062 6.53125 -27.8125 C 9.207031 -29.457031 13.03125 -30.28125 18 -30.28125 Z M 22.140625 -12.890625 C 18.960938 -12.890625 16.617188 -12.539062 15.109375 -11.84375 C 13.597656 -11.15625 12.84375 -10.234375 12.84375 -9.078125 C 12.84375 -7.210938 14.113281 -6.28125 16.65625 -6.28125 C 18.113281 -6.28125 19.390625 -6.671875 20.484375 -7.453125 C 21.585938 -8.242188 22.140625 -9.21875 22.140625 -10.375 Z M 22.140625 -12.890625 "/></g></g></g><g fill="#004aad" fill-opacity="1"><g transform="translate(147.488076, 51.703628)"><g><path d="M 3.75 0 L 3.75 -40.640625 L 14.90625 -40.640625 L 14.90625 0 Z M 3.75 0 "/></g></g></g><g fill="#004aad" fill-opacity="1"><g transform="translate(162.958658, 51.703628)"><g><path d="M 3.75 0 L 3.75 -40.640625 L 14.90625 -40.640625 L 14.90625 0 Z M 3.75 0 "/></g></g></g><g fill="#004aad" fill-opacity="1"><g transform="translate(178.429239, 51.703628)"><g><path d="M 18 -30.28125 C 22.519531 -30.28125 26.195312 -29.519531 29.03125 -28 C 31.875 -26.488281 33.296875 -24.03125 33.296875 -20.625 L 33.296875 -9.078125 C 33.296875 -8.441406 33.445312 -7.914062 33.75 -7.5 C 34.050781 -7.09375 34.5 -6.890625 35.09375 -6.890625 L 37.109375 -6.890625 L 37.109375 -0.453125 C 36.992188 -0.378906 36.703125 -0.253906 36.234375 -0.078125 C 35.773438 0.0859375 35.113281 0.253906 34.25 0.421875 C 33.394531 0.585938 32.40625 0.671875 31.28125 0.671875 C 29.113281 0.671875 27.328125 0.34375 25.921875 -0.3125 C 24.523438 -0.96875 23.566406 -1.875 23.046875 -3.03125 C 21.617188 -1.90625 20.023438 -1.003906 18.265625 -0.328125 C 16.515625 0.335938 14.460938 0.671875 12.109375 0.671875 C 5.160156 0.671875 1.6875 -2.09375 1.6875 -7.625 C 1.6875 -10.5 2.457031 -12.691406 4 -14.203125 C 5.550781 -15.722656 7.785156 -16.765625 10.703125 -17.328125 C 13.617188 -17.890625 17.429688 -18.171875 22.140625 -18.171875 L 22.140625 -19.625 C 22.140625 -20.78125 21.738281 -21.65625 20.9375 -22.25 C 20.132812 -22.851562 19.097656 -23.15625 17.828125 -23.15625 C 16.671875 -23.15625 15.671875 -22.945312 14.828125 -22.53125 C 13.984375 -22.125 13.5625 -21.472656 13.5625 -20.578125 L 13.5625 -20.34375 L 2.578125 -20.34375 C 2.535156 -20.53125 2.515625 -20.796875 2.515625 -21.140625 C 2.515625 -23.941406 3.851562 -26.164062 6.53125 -27.8125 C 9.207031 -29.457031 13.03125 -30.28125 18 -30.28125 Z M 22.140625 -12.890625 C 18.960938 -12.890625 16.617188 -12.539062 15.109375 -11.84375 C 13.597656 -11.15625 12.84375 -10.234375 12.84375 -9.078125 C 12.84375 -7.210938 14.113281 -6.28125 16.65625 -6.28125 C 18.113281 -6.28125 19.390625 -6.671875 20.484375 -7.453125 C 21.585938 -8.242188 22.140625 -9.21875 22.140625 -10.375 Z M 22.140625 -12.890625 "/></g></g></g><g fill="#004aad" fill-opacity="1"><g transform="translate(212.621846, 51.703628)"><g><path d="M 3.421875 0 L 3.421875 -11.15625 L 15.3125 -11.15625 L 15.3125 0 Z M 3.421875 0 "/></g></g></g><g fill="#ff914d" fill-opacity="1"><g transform="translate(185.880793, 61.818821)"><g><path d="M 5.8125 -5.15625 L 4.90625 0 L 3.5625 0 L 3.90625 -2 L 1.859375 -2 L 1.5 0 L 0.15625 0 L 1.0625 -5.15625 L 2.40625 -5.15625 L 2.03125 -3.046875 L 4.09375 -3.046875 L 4.46875 -5.15625 Z M 5.8125 -5.15625 "/></g></g></g><g fill="#ff914d" fill-opacity="1"><g transform="translate(191.336315, 61.818821)"><g><path d="M 2.21875 -4.109375 L 2.046875 -3.109375 L 4.4375 -3.109375 L 4.25 -2.0625 L 1.859375 -2.0625 L 1.6875 -1.046875 L 4.296875 -1.046875 L 4.109375 0 L 0.15625 0 L 1.0625 -5.15625 L 4.9375 -5.15625 L 4.75 -4.109375 Z M 2.21875 -4.109375 "/></g></g></g><g fill="#ff914d" fill-opacity="1"><g transform="translate(195.791738, 61.818821)"><g><path d="M 3.390625 -1.34375 L 1.765625 -1.34375 L 1.109375 0 L -0.328125 0 L 2.390625 -5.15625 L 4.140625 -5.15625 L 5.046875 0 L 3.578125 0 Z M 3.234375 -2.375 L 3.015625 -3.90625 L 2.265625 -2.375 Z M 3.234375 -2.375 "/></g></g></g><g fill="#ff914d" fill-opacity="1"><g transform="translate(200.83677, 61.818821)"><g><path d="M 4.3125 -1.140625 L 4.109375 0 L 0.15625 0 L 1.0625 -5.15625 L 2.40625 -5.15625 L 1.703125 -1.140625 Z M 4.3125 -1.140625 "/></g></g></g><g fill="#ff914d" fill-opacity="1"><g transform="translate(205.202638, 61.818821)"><g><path d="M 5.15625 -4.109375 L 3.5 -4.109375 L 2.765625 0 L 1.421875 0 L 2.15625 -4.109375 L 0.46875 -4.109375 L 0.671875 -5.15625 L 5.359375 -5.15625 Z M 5.15625 -4.109375 "/></g></g></g><g fill="#ff914d" fill-opacity="1"><g transform="translate(209.687921, 61.818821)"><g><path d="M 5.8125 -5.15625 L 4.90625 0 L 3.5625 0 L 3.90625 -2 L 1.859375 -2 L 1.5 0 L 0.15625 0 L 1.0625 -5.15625 L 2.40625 -5.15625 L 2.03125 -3.046875 L 4.09375 -3.046875 L 4.46875 -5.15625 Z M 5.8125 -5.15625 "/></g></g></g></svg>